# xmcd
#
# Track frame offsets: 
#        183
#        30370
#        66640
#        87983
#        113183
#        133773
#        146533
#        177710
#        202895
#        232445
#        243758
#        253268
#        272335
#        296315
#        318885
#
# Disc length: 4664 seconds
#
# Revision: 17
# Processed by: cddbd v1.5.2PL0 Copyright (c) Steve Scherf et al.
# Submitted via: ExactAudioCopy v1.0b3
#
DISCID=e012360f
DTITLE=Jan Garbarek and The Hilliard Ensemble - Officium
DYEAR=1994
DGENRE=Jazz
TTITLE0=Jan Garbarek and The Hilliard Ensemble - Parce mihi domine (de M
TTITLE0=orales)
TTITLE1=Jan Garbarek and The Hilliard Ensemble - Primo tempore (Anonymou
TTITLE1=s)
TTITLE2=Jan Garbarek and The Hilliard Ensemble - Sanctus (Anonymous)
TTITLE3=Jan Garbarek and The Hilliard Ensemble - Regnantem sempiterna (A
TTITLE3=nonymous)
TTITLE4=Jan Garbarek and The Hilliard Ensemble - O salutaris hostia (Pie
TTITLE4=rre de la Rue)
TTITLE5=Jan Garbarek and The Hilliard Ensemble - Procedentem sponsum (An
TTITLE5=onymous)
TTITLE6=Jan Garbarek and The Hilliard Ensemble - Pulcherrima rosa (Anony
TTITLE6=mous)
TTITLE7=Jan Garbarek and The Hilliard Ensemble - Parce mihi domine (de M
TTITLE7=orales)
TTITLE8=Jan Garbarek and The Hilliard Ensemble - Beata viscera (Magister
TTITLE8=Perotinus)
TTITLE9=Jan Garbarek and The Hilliard Ensemble - De spineto nata rosa (A
TTITLE9=nonymous)
TTITLE10=Jan Garbarek and The Hilliard Ensemble - Credo (Anonymous)
TTITLE11=Jan Garbarek and The Hilliard Ensemble - Ava maris stella  (Gui
TTITLE11=llaume Dufay)
TTITLE12=Jan Garbarek and The Hilliard Ensemble - Virgo flagellatur (Ano
TTITLE12=nymous)
TTITLE13=Jan Garbarek and The Hilliard Ensemble - Oratio leremiae (Anony
TTITLE13=mous)
TTITLE14=Jan Garbarek and The Hilliard Ensemble - Parce mihi domine (de 
TTITLE14=Morales)
EXTD=YEAR: 1994
EXTT0=
EXTT1=
EXTT2=
EXTT3=
EXTT4=
EXTT5=
EXTT6=
EXTT7=
EXTT8=
EXTT9=
EXTT10=
EXTT11=
EXTT12=
EXTT13=
EXTT14=
PLAYORDER=
